<svg width="512" height="285" viewBox="0 0 512 285" fill="none" xmlns="http://www.w3.org/2000/svg">
<g clip-path="url(#clip0_18_2)">
<path d="M158.247 139.274C220.765 163.066 279.597 194.961 340.655 222.282C253.868 170.083 160.998 128.309 78.0787 69.3914C149.239 104.677 219.315 142.156 292.731 172.821C275.29 159.974 256.332 149.659 237.305 139.443C185.745 111.76 132.523 87.2459 81.7749 58.0133C55.2838 42.7537 30.5546 24.8671 5.68366 7.19361C3.35128 5.53623 1.45836 3.26162 0 0C82.9995 28.7063 162.231 66.6271 244.447 97.079C193.683 62.6524 135.945 42.4425 80.8893 16.6714C173.21 44.5533 347.395 125.896 347.395 125.896C347.395 125.896 250.34 72.4306 203.819 42.2153C278.164 71.9024 348.873 109.604 423.602 138.268C371.457 104.329 315.139 77.9556 259.719 50.1793C261.62 45.6389 263.961 47.0537 265.5 47.7453C331.225 77.2674 399.318 101.804 461.248 139.31C475.705 148.065 489.467 158.605 498.693 173.227C515.597 200.018 516.994 227.886 499.436 254.645C482.809 279.983 457.216 287.495 428.305 284.311C404.033 281.638 383.693 268.791 363.135 256.843C298.96 219.545 233.49 184.588 168.209 149.287C164.213 147.126 160.436 144.559 156.557 142.181C157.12 141.212 157.684 140.243 158.247 139.274Z" fill="#BC0248"/>
<path d="M439.132 272.898C471.963 272.898 498.578 246.308 498.578 213.509C498.578 180.709 471.963 154.12 439.132 154.12C406.301 154.12 379.686 180.709 379.686 213.509C379.686 246.308 406.301 272.898 439.132 272.898Z" fill="#F5F3F4"/>
<path d="M473.725 213.509C447.246 218.914 443.613 223.296 439.132 255.233C434.65 223.296 431.017 218.914 404.539 213.509C431.017 208.104 434.65 203.722 439.132 171.785C443.613 203.722 447.246 208.104 473.725 213.509Z" fill="#0B0B0B"/>
<path d="M330.056 228.045C303.577 233.45 299.944 237.832 295.463 269.769C290.981 237.832 287.348 233.45 260.869 228.045C287.348 222.64 290.981 218.258 295.463 186.321C299.944 218.258 303.577 222.64 330.056 228.045Z" fill="#F5F3F4"/>
<path d="M452.371 94.0585C425.893 99.4638 422.26 103.846 417.778 135.782C413.297 103.846 409.664 99.4638 383.185 94.0585C409.664 88.6533 413.297 84.2714 417.778 52.3347C422.26 84.2714 425.893 88.6533 452.371 94.0585Z" fill="#F5F3F4"/>
</g>
<defs>
<clipPath id="clip0_18_2">
<rect width="512" height="285" fill="white"/>
</clipPath>
</defs>
</svg>
